<svg width="391" height="238" viewBox="0 0 391 238" fill="none" xmlns="http://www.w3.org/2000/svg">
<g filter="url(#filter0_d_12_42)">
<rect x="4" width="383" height="230" fill="#F8EF0F"/>
<path d="M48.4091 79C48.0966 78.0436 47.6847 77.1866 47.1733 76.429C46.6714 75.6619 46.0701 75.0085 45.3693 74.4688C44.678 73.929 43.892 73.517 43.0114 73.233C42.1307 72.9489 41.1648 72.8068 40.1136 72.8068C38.3902 72.8068 36.8229 73.2519 35.4119 74.142C34.0009 75.0322 32.8788 76.3438 32.0455 78.0767C31.2121 79.8097 30.7955 81.9356 30.7955 84.4545C30.7955 86.9735 31.2169 89.0994 32.0597 90.8324C32.9025 92.5653 34.0436 93.8769 35.483 94.767C36.9223 95.6572 38.5417 96.1023 40.3409 96.1023C42.0076 96.1023 43.4754 95.7472 44.7443 95.0369C46.0227 94.3172 47.017 93.304 47.7273 91.9972C48.447 90.6809 48.8068 89.1326 48.8068 87.3523L49.8864 87.5795H41.1364V84.4545H52.2159V87.5795C52.2159 89.9754 51.7045 92.0587 50.6818 93.8295C49.6686 95.6004 48.267 96.9735 46.4773 97.9489C44.697 98.9148 42.6515 99.3977 40.3409 99.3977C37.7652 99.3977 35.5019 98.7917 33.5511 97.5795C31.6098 96.3674 30.0947 94.6439 29.0057 92.4091C27.9261 90.1742 27.3864 87.5227 27.3864 84.4545C27.3864 82.1534 27.6941 80.0843 28.3097 78.2472C28.9347 76.4006 29.8153 74.8286 30.9517 73.5312C32.0881 72.2339 33.4328 71.2396 34.9858 70.5483C36.5388 69.857 38.2481 69.5114 40.1136 69.5114C41.6477 69.5114 43.0777 69.7434 44.4034 70.2074C45.7386 70.6619 46.9271 71.3106 47.9688 72.1534C49.0199 72.9867 49.8958 73.9858 50.5966 75.1506C51.2973 76.3059 51.7803 77.589 52.0455 79H48.4091ZM58.2493 99V69.9091H75.8061V73.0341H61.772V82.8636H74.897V85.9886H61.772V95.875H76.0334V99H58.2493ZM80.5646 73.0341V69.9091H102.383V73.0341H93.2351V99H89.7124V73.0341H80.5646ZM134.979 77.1818C134.808 75.7424 134.117 74.625 132.905 73.8295C131.693 73.0341 130.206 72.6364 128.445 72.6364C127.157 72.6364 126.03 72.8447 125.064 73.2614C124.107 73.678 123.359 74.2509 122.82 74.9801C122.289 75.7093 122.024 76.5379 122.024 77.4659C122.024 78.2424 122.209 78.91 122.578 79.4688C122.957 80.018 123.44 80.4773 124.027 80.8466C124.614 81.2064 125.23 81.5047 125.874 81.7415C126.518 81.9687 127.109 82.1534 127.649 82.2955L130.604 83.0909C131.361 83.2898 132.204 83.5644 133.132 83.9148C134.07 84.2652 134.964 84.7434 135.817 85.3494C136.679 85.946 137.389 86.7131 137.947 87.6506C138.506 88.5881 138.786 89.7386 138.786 91.1023C138.786 92.6742 138.374 94.0947 137.55 95.3636C136.735 96.6326 135.542 97.6411 133.97 98.3892C132.408 99.1373 130.509 99.5114 128.274 99.5114C126.191 99.5114 124.387 99.1752 122.862 98.5028C121.347 97.8305 120.154 96.893 119.283 95.6903C118.421 94.4877 117.933 93.0909 117.82 91.5H121.456C121.551 92.5985 121.92 93.5076 122.564 94.2273C123.217 94.9375 124.041 95.4678 125.036 95.8182C126.039 96.1591 127.119 96.3295 128.274 96.3295C129.619 96.3295 130.826 96.1117 131.896 95.6761C132.966 95.2311 133.814 94.6155 134.439 93.8295C135.064 93.0341 135.376 92.1061 135.376 91.0455C135.376 90.0795 135.107 89.2936 134.567 88.6875C134.027 88.0814 133.317 87.589 132.436 87.2102C131.555 86.8314 130.604 86.5 129.581 86.2159L126.001 85.1932C123.729 84.5398 121.929 83.607 120.604 82.3949C119.278 81.1828 118.615 79.5966 118.615 77.6364C118.615 76.0076 119.055 74.5871 119.936 73.375C120.826 72.1534 122.019 71.2064 123.516 70.5341C125.021 69.8523 126.702 69.5114 128.558 69.5114C130.433 69.5114 132.1 69.8475 133.558 70.5199C135.017 71.1828 136.172 72.0919 137.024 73.2472C137.886 74.4025 138.34 75.714 138.388 77.1818H134.979ZM142.987 73.0341V69.9091H164.805V73.0341H155.657V99H152.134V73.0341H142.987ZM168.036 99H164.343L175.025 69.9091H178.661L189.343 99H185.65L176.957 74.5114H176.729L168.036 99ZM169.4 87.6364H184.286V90.7614H169.4V87.6364ZM193.874 99V69.9091H203.704C205.977 69.9091 207.842 70.2973 209.3 71.0739C210.759 71.8409 211.838 72.8968 212.539 74.2415C213.24 75.5862 213.59 77.1155 213.59 78.8295C213.59 80.5436 213.24 82.0634 212.539 83.3892C211.838 84.715 210.763 85.7566 209.315 86.5142C207.866 87.2623 206.014 87.6364 203.761 87.6364H195.806V84.4545H203.647C205.2 84.4545 206.45 84.2273 207.397 83.7727C208.353 83.3182 209.045 82.6742 209.471 81.8409C209.906 80.9981 210.124 79.9943 210.124 78.8295C210.124 77.6648 209.906 76.6468 209.471 75.7756C209.035 74.9044 208.339 74.232 207.383 73.7585C206.426 73.2756 205.162 73.0341 203.59 73.0341H197.397V99H193.874ZM207.567 85.9318L214.727 99H210.636L203.59 85.9318H207.567ZM217.869 73.0341V69.9091H239.688V73.0341H230.54V99H227.017V73.0341H217.869ZM245.124 99V69.9091H262.681V73.0341H248.647V82.8636H261.772V85.9886H248.647V95.875H262.908V99H245.124ZM278.008 99H269.031V69.9091H278.406C281.228 69.9091 283.642 70.4915 285.65 71.6562C287.657 72.8116 289.196 74.4735 290.266 76.642C291.336 78.8011 291.871 81.3864 291.871 84.3977C291.871 87.428 291.332 90.0369 290.252 92.2244C289.173 94.4025 287.601 96.0786 285.536 97.2528C283.472 98.4176 280.962 99 278.008 99ZM272.553 95.875H277.781C280.186 95.875 282.179 95.411 283.761 94.483C285.342 93.5549 286.521 92.2339 287.298 90.5199C288.074 88.8059 288.462 86.7652 288.462 84.3977C288.462 82.0492 288.079 80.0275 287.312 78.3324C286.545 76.6278 285.399 75.321 283.874 74.4119C282.35 73.4934 280.451 73.0341 278.178 73.0341H272.553V95.875ZM26.9318 121.034V117.909H48.75V121.034H39.6023V147H36.0795V121.034H26.9318ZM77.5213 132.455C77.5213 135.523 76.9673 138.174 75.8594 140.409C74.7514 142.644 73.2315 144.367 71.2997 145.58C69.3679 146.792 67.1615 147.398 64.6804 147.398C62.1993 147.398 59.9929 146.792 58.0611 145.58C56.1293 144.367 54.6094 142.644 53.5014 140.409C52.3935 138.174 51.8395 135.523 51.8395 132.455C51.8395 129.386 52.3935 126.735 53.5014 124.5C54.6094 122.265 56.1293 120.542 58.0611 119.33C59.9929 118.117 62.1993 117.511 64.6804 117.511C67.1615 117.511 69.3679 118.117 71.2997 119.33C73.2315 120.542 74.7514 122.265 75.8594 124.5C76.9673 126.735 77.5213 129.386 77.5213 132.455ZM74.1122 132.455C74.1122 129.936 73.6908 127.81 72.848 126.077C72.0147 124.344 70.883 123.032 69.4531 122.142C68.0327 121.252 66.4418 120.807 64.6804 120.807C62.919 120.807 61.3234 121.252 59.8935 122.142C58.473 123.032 57.3414 124.344 56.4986 126.077C55.6652 127.81 55.2486 129.936 55.2486 132.455C55.2486 134.973 55.6652 137.099 56.4986 138.832C57.3414 140.565 58.473 141.877 59.8935 142.767C61.3234 143.657 62.919 144.102 64.6804 144.102C66.4418 144.102 68.0327 143.657 69.4531 142.767C70.883 141.877 72.0147 140.565 72.848 138.832C73.6908 137.099 74.1122 134.973 74.1122 132.455ZM92.4219 147H83.4446V117.909H92.8196C95.6416 117.909 98.0563 118.491 100.064 119.656C102.071 120.812 103.61 122.473 104.68 124.642C105.75 126.801 106.286 129.386 106.286 132.398C106.286 135.428 105.746 138.037 104.666 140.224C103.587 142.402 102.015 144.079 99.9503 145.253C97.8859 146.418 95.3764 147 92.4219 147ZM86.9673 143.875H92.1946C94.5999 143.875 96.5933 143.411 98.1747 142.483C99.7562 141.555 100.935 140.234 101.712 138.52C102.488 136.806 102.876 134.765 102.876 132.398C102.876 130.049 102.493 128.027 101.726 126.332C100.959 124.628 99.813 123.321 98.2884 122.412C96.7637 121.493 94.8651 121.034 92.5923 121.034H86.9673V143.875ZM112.021 147H108.327L119.009 117.909H122.646L133.327 147H129.634L120.941 122.511H120.714L112.021 147ZM113.384 135.636H128.271V138.761H113.384V135.636ZM132.39 117.909H136.424L144.492 131.489H144.833L152.901 117.909H156.935L146.424 135.011V147H142.901V135.011L132.39 117.909Z" fill="black"/>
<path d="M299.095 146.875C299.68 146.288 299.677 145.338 299.089 144.754L289.516 135.236C288.928 134.652 287.978 134.654 287.394 135.242C286.81 135.829 286.813 136.779 287.4 137.363L295.91 145.824L287.45 154.334C286.866 154.921 286.869 155.871 287.456 156.455C288.044 157.039 288.993 157.036 289.577 156.449L299.095 146.875ZM172.973 147.682L298.036 147.317L298.027 144.318L172.964 144.682L172.973 147.682Z" fill="black"/>
</g>
<defs>
<filter id="filter0_d_12_42" x="0" y="0" width="391" height="238" filterUnits="userSpaceOnUse" color-interpolation-filters="sRGB">
<feFlood flood-opacity="0" result="BackgroundImageFix"/>
<feColorMatrix in="SourceAlpha" type="matrix" values="0 0 0 0 0 0 0 0 0 0 0 0 0 0 0 0 0 0 127 0" result="hardAlpha"/>
<feOffset dy="4"/>
<feGaussianBlur stdDeviation="2"/>
<feComposite in2="hardAlpha" operator="out"/>
<feColorMatrix type="matrix" values="0 0 0 0 0 0 0 0 0 0 0 0 0 0 0 0 0 0 0.25 0"/>
<feBlend mode="normal" in2="BackgroundImageFix" result="effect1_dropShadow_12_42"/>
<feBlend mode="normal" in="SourceGraphic" in2="effect1_dropShadow_12_42" result="shape"/>
</filter>
</defs>
</svg>
